<?xml version="1.0" encoding="utf-8"?>
<!-- Generator: Adobe Illustrator 18.1.1, SVG Export Plug-In . SVG Version: 6.00 Build 0)  -->
<!DOCTYPE svg PUBLIC "-//W3C//DTD SVG 1.0//EN" "http://www.w3.org/TR/2001/REC-SVG-20010904/DTD/svg10.dtd">
<svg version="1.0" id="Layer_1" xmlns="http://www.w3.org/2000/svg" xmlns:xlink="http://www.w3.org/1999/xlink" x="0px" y="0px"
	 viewBox="425.929 383.314 245.181 132.35" enable-background="new 425.929 383.314 245.181 132.35" xml:space="preserve">
<path fill="#FFFFFF" d="M475.767,423.909c-2.865,0-4.91-0.673-5.982-1.401c-0.718-0.503-0.921-1.065-0.921-6.112
	c0-3.924,0.152-4.038,0.716-4.038c0.613,0,0.613,0.282,0.715,0.842c1.278,6.895,3.529,9.362,6.544,9.362
	c3.374,0,5.728-3.309,5.728-7.513c0-9.868-13.501-9.251-13.501-19.679c0-4.598,3.887-8.356,8.692-8.356
	c2.147,0,4.963,0.954,5.625,1.683c0.306,0.335,0.306,0.672,0.306,5.326c0,2.916,0,3.028-0.51,3.028
	c-0.716,0-0.564-0.896-0.869-2.075c-1.28-4.934-3.119-6.614-5.368-6.614c-2.557,0-4.808,2.467-4.808,5.381
	c0,9.924,13.498,8.411,13.498,19.624C485.634,419.761,481.544,423.909,475.767,423.909z"/>
<path fill="#FFFFFF" d="M495.698,423.687c-5.32,0-8.847-6.224-8.847-13.345c0-7.119,3.527-13.344,8.847-13.344
	c5.317,0,8.843,6.224,8.843,13.344C504.54,417.462,501.016,423.687,495.698,423.687z M495.698,398.344
	c-3.735,0-5.473,6.392-5.473,11.999c0,5.606,1.738,11.998,5.473,11.998c3.73,0,5.468-6.392,5.468-11.998
	C501.166,404.735,499.428,398.344,495.698,398.344z"/>
<path fill="#FFFFFF" d="M509.775,416.509c0,3.029,1.738,4.71,4.192,4.71c2.608,0,5.318-2.242,5.318-5.047v-15.193
	c0-1.29-0.153-1.795-1.431-1.963c-1.329-0.168-1.687-0.056-1.687-0.84c0-0.338,0.255-0.73,0.869-0.73h4.552
	c0.51,0,0.767,0.111,0.767,1.29v18.951c0,2.02,0.205,2.523,1.175,2.636c1.125,0.113,1.38,0.224,1.38,0.673
	c0,0.279-0.307,0.56-0.97,0.841c-2.352,1.008-3.835,1.85-4.039,1.85c-0.155,0-0.358-0.113-0.358-1.626
	c0-2.075-0.052-2.187-0.358-2.187c-0.817,0-2.659,3.476-6.646,3.476c-2.865,0-5.677-1.234-5.829-6.055v-16.598
	c0-1.121-0.308-1.571-1.432-1.682c-1.023-0.111-1.33-0.28-1.33-0.785c0-0.393,0.308-0.786,1.074-0.786h3.937
	c0.768,0,0.818,0.225,0.818,2.187v16.877H509.775z"/>
<path fill="#FFFFFF" d="M531.187,419.088c0,1.907,0.615,2.244,1.535,2.244c1.943,0,2.302-3.252,3.116-3.252
	c0.309,0,0.464,0.111,0.464,0.448c0,0.451-0.512,2.243-1.177,3.477c-0.715,1.346-1.839,1.682-3.221,1.682
	c-2.302,0-3.784-1.29-3.784-4.822v-18.838c0-0.897-0.87-0.897-1.635-0.897c-0.459,0-0.82,0-0.82-0.673
	c0-0.672,1.585-1.626,4.193-7.064c0.51-1.065,0.51-1.346,0.866-1.346c0.309,0,0.462,0.169,0.462,1.403v4.989
	c0,0.896,0.256,1.233,1.024,1.233h2.043c0.923,0,1.28,0.168,1.28,0.842c0,0.728-0.307,1.065-1.38,1.065h-2.3
	c-0.512,0-0.666,0.168-0.666,1.009v18.5H531.187z"/>
<path fill="#FFFFFF" d="M542.24,419.594c0,1.288,0.513,2.016,2.197,2.299c0.973,0.168,1.125,0.335,1.125,0.784
	c0,0.392-0.308,0.56-0.714,0.56c-0.31,0-0.871-0.224-4.297-0.224c-2.352,0-2.762,0.224-3.476,0.224
	c-0.411,0-0.665-0.224-0.665-0.672c0-0.28,0.254-0.617,0.713-0.672c1.689-0.225,2.048-0.73,2.048-2.916v-30.781
	c0-0.842-0.256-1.179-1.481-1.402c-0.82-0.169-1.075-0.225-1.075-0.618c0-0.393,0.151-0.504,0.714-0.728
	c4.143-1.626,4.143-2.131,4.655-2.131c0.153,0,0.255,0.111,0.255,0.786v16.429c0,0.279,0.101,0.392,0.356,0.392
	c0.464,0,2.916-3.59,6.393-3.59c2.865,0,5.674,1.907,5.829,6.392v15.53c0,1.795,0.46,2.523,1.584,2.637
	c1.023,0.111,1.383,0.279,1.383,0.784c0,0.392-0.361,0.56-0.716,0.56c-0.206,0-1.741-0.224-3.786-0.224
	c-2.606,0-2.965,0.224-3.529,0.224c-0.561,0-0.766-0.168-0.766-0.616c0-0.504,0.359-0.617,0.972-0.728
	c1.38-0.225,1.79-0.618,1.79-2.019v-15.7c0-3.028-1.737-4.71-4.193-4.71c-2.607,0-5.317,2.243-5.317,5.047v15.087H542.24z"/>
<path fill="#FFFFFF" d="M561.473,409.333c-0.869,0-1.177,0.448-1.177,1.009c0,6.728,2.455,10.989,6.033,10.989
	c2.2,0,3.632-1.29,4.5-3.197c0.615-1.347,0.615-1.906,0.972-1.906c0.203,0,0.357,0.111,0.357,0.672c0,3.533-2.3,6.785-6.341,6.785
	c-5.623,0-8.896-5.159-8.896-12.783c0-9.421,4.295-13.904,8.692-13.904c3.682,0,6.444,3.251,6.444,8.859
	c0,3.308,0,3.476-1.228,3.476L561.473,409.333L561.473,409.333z M562.647,407.763c3.425,0,5.418-0.393,5.88-0.785
	c0.461-0.393,0.665-1.01,0.665-2.522c0-3.869-1.635-6.113-3.886-6.113c-2.76,0-4.909,3.588-4.909,8.186
	C560.398,407.539,560.501,407.763,562.647,407.763z"/>
<path fill="#FFFFFF" d="M575.521,404.121c0-2.02-0.513-2.411-1.996-2.411c-0.358,0-0.51-0.113-0.51-0.449
	c0-1.121,1.687-0.561,3.424-2.58c0.718-0.842,0.923-1.234,1.33-1.234c0.82,0,0.155,4.821,0.665,4.821
	c0.768,0,1.38-4.821,4.858-4.821c1.687,0,2.659,1.403,2.659,3.7c0,1.795-0.562,3.084-1.891,3.084c-1.38,0-1.791-1.009-1.791-2.242
	c0-0.897,0-1.85-0.51-1.85c-2.251,0-3.17,5.493-3.17,6.952v11.661c0,2.58,0.099,3.253,1.84,3.59
	c1.125,0.225,1.689,0.335,1.689,0.728c0,0.503-0.259,0.617-1.179,0.617c-0.409,0-0.869-0.225-3.936-0.225
	c-2.351,0-2.915,0.225-3.272,0.225c-0.666,0-1.022-0.169-0.972-0.672c0.052-0.448,0.407-0.561,1.073-0.672
	c1.431-0.225,1.687-0.449,1.687-3.026v-15.196H575.521z"/>
<path fill="#FFFFFF" d="M592.342,420.38c0,1.29,0.206,1.738,1.429,1.963c1.639,0.279,1.895,0.225,1.895,0.785
	c0,0.392-0.308,0.561-0.719,0.561c-0.304,0-0.866-0.225-4.294-0.225c-2.352,0-2.76,0.225-3.221,0.225
	c-0.667,0-0.923-0.225-0.923-0.672c0-0.28,0.255-0.617,0.718-0.672c1.687-0.225,2.045-0.73,2.045-2.915v-16.036
	c0-1.571-0.206-1.681-1.535-1.794c-0.818-0.056-1.022-0.113-1.022-0.506c0-0.279,0.307-0.504,0.972-0.841
	c2.71-1.344,3.681-2.802,4.039-2.802c0.204,0,0.358,0.282,0.358,0.673c0,3.084,0,3.252,0.255,3.252c0.923,0,3.221-3.588,6.751-3.588
	c2.862,0,5.673,1.905,5.828,6.39v15.531c0,1.85,0.409,2.522,1.431,2.635c1.174,0.111,1.532,0.279,1.532,0.785
	c0,0.392-0.358,0.561-0.715,0.561c-0.204,0-0.92-0.225-3.784-0.225c-2.608,0-2.964,0.225-3.526,0.225s-0.767-0.169-0.767-0.617
	c0-0.337,0.356-0.617,0.969-0.728c1.38-0.225,1.79-0.561,1.79-2.019v-15.699c0-3.026-1.738-4.71-4.193-4.71
	c-2.607,0-5.317,2.243-5.317,5.047v15.419H592.342z"/>
<path fill="#FFFFFF" d="M447.303,461.904c0,1.434,0,1.486-0.563,1.486c-0.613,0-0.51-0.564-8.283-14.908
	c-6.902-12.756-6.851-13.577-7.364-13.577c-0.255,0-0.358,0.155-0.358,1.127v18.034c0,5.02,0.307,6.712,1.585,6.967
	c1.431,0.307,2.608,0.05,2.608,0.923c0,0.411-0.307,0.513-0.768,0.513c-0.613,0-0.714-0.206-3.579-0.206
	c-2.557,0-3.27,0.206-4.09,0.206c-0.409,0-0.563-0.206-0.563-0.513c0-0.616,1.638-0.719,2.2-0.923
	c0.972-0.359,1.174-1.434,1.174-2.971V434.24c0-1.794-0.204-2.663-1.174-2.817c-1.278-0.206-1.738-0.155-1.738-0.82
	c0-0.564,0.716-0.616,1.124-0.616c1.023,0,2.762,0.102,3.527,0.102l1.022,0.052c0.768,0.052,0.972,1.024,1.585,2.255l7.312,14.037
	c4.245,8.145,4.449,8.351,4.654,8.351s0.256-0.258,0.256-0.718v-18.854c0-2.868-0.615-3.638-1.79-3.791
	c-1.022-0.155-1.738-0.309-1.738-0.82c0-0.358,0.307-0.616,0.665-0.616c0.563,0,1.278,0.205,3.58,0.205
	c1.125,0,2.146-0.205,3.119-0.205c0.665,0,0.818,0.153,0.818,0.616c0,0.613-0.512,0.613-1.738,0.82
	c-1.174,0.205-1.482,1.024-1.482,2.714L447.303,461.904L447.303,461.904z"/>
<path fill="#FFFFFF" d="M454.951,448.477c-0.87,0-1.177,0.449-1.177,1.01c0,6.728,2.455,10.989,6.033,10.989
	c2.197,0,3.632-1.289,4.5-3.197c0.611-1.346,0.611-1.907,0.972-1.907c0.206,0,0.356,0.114,0.356,0.673
	c0,3.533-2.298,6.785-6.339,6.785c-5.623,0-8.895-5.159-8.895-12.784c0-9.42,4.294-13.905,8.69-13.905
	c3.683,0,6.445,3.252,6.445,8.86c0,3.307,0,3.476-1.228,3.476H454.951z M456.126,446.907c3.425,0,5.419-0.393,5.878-0.786
	c0.462-0.393,0.666-1.009,0.666-2.522c0-3.87-1.637-6.11-3.886-6.11c-2.76,0-4.908,3.587-4.908,8.184
	C453.878,446.682,453.979,446.907,456.126,446.907z"/>
<path fill="#FFFFFF" d="M478.93,445.504c0.205-0.73,0.358-1.345,0.358-1.738c0-0.504-0.308-1.457-1.278-4.205
	c-0.666-1.906-2.76-1.233-2.76-2.187c0-0.449,0.306-0.784,1.483-0.784c1.378,0,2.197,0.223,3.017,0.223
	c1.53,0,1.685-0.223,2.812-0.223c0.867,0,0.972,0.279,0.972,0.728c0,0.392-0.309,0.561-0.719,0.617
	c-1.483,0.224-1.891,0.56-1.891,1.289c0,0.504,0.155,1.121,1.992,7.626c2.25,7.962,2.302,8.355,2.505,8.355
	c0.309,0,0.665-1.347,0.923-2.354l3.018-11.551c0.202-0.786,0.254-1.571,0.254-1.738c0-0.841-0.613-1.402-2.455-1.626
	c-0.407-0.055-0.562-0.337-0.562-0.561c0-0.449,0.309-0.784,0.615-0.784c0.818,0,1.687,0.223,2.711,0.223
	c1.482,0,2.196-0.223,2.708-0.223c0.461,0,0.768,0.111,0.768,0.728c0,1.346-1.584,0.225-2.25,2.691l-5.522,21.139
	c-0.205,0.785-0.357,1.682-0.869,1.682c-0.561,0-0.715-0.954-0.921-1.682l-3.322-13.007c-0.152-0.504-0.258-1.01-0.513-1.01
	c-0.306,0-0.407,0.673-0.562,1.234l-3.526,12.783c-0.204,0.785-0.359,1.682-0.871,1.682c-0.562,0-0.716-0.954-0.92-1.682
	l-6.136-20.968c-0.92-3.028-2.2-1.963-2.2-2.916c0-0.449,0.307-0.672,0.973-0.672c1.175,0,1.429,0.223,2.709,0.223
	c1.329,0,1.893-0.223,2.812-0.223c0.51,0,0.871,0.168,0.871,0.616c0,1.065-2.406,0.113-2.406,2.13c0,0.448,0.103,0.954,0.617,2.58
	l3.834,12.28c0.254,0.785,0.304,1.01,0.563,1.01c0.306,0,0.561-0.73,0.767-1.458L478.93,445.504z"/>
<path fill="#FFFFFF" d="M516.698,433.112c0-1.347-0.205-1.969-1.124-2.124c-1.227-0.207-1.892-0.207-1.892-0.776
	c0-0.518,0.461-0.673,1.177-0.673c1.023,0,1.738,0.206,3.681,0.206c2.505,0,2.864-0.206,3.781-0.206
	c0.617,0,0.769,0.207,0.769,0.466c0,0.622-0.82,0.828-1.945,0.984c-0.663,0.104-1.075,0.519-1.075,0.984v26.783
	c0,1.242,0.307,1.917,0.871,2.176c0.972,0.415,1.995,0.259,1.995,0.879c0,0.363-0.155,0.57-0.821,0.57
	c-0.768,0-1.738-0.207-3.681-0.207c-2.299,0-2.556,0.207-3.271,0.207c-1.124,0-1.38-0.156-1.38-0.726
	c0-0.361,0.256-0.465,1.483-0.724c1.124-0.26,1.429-0.727,1.429-2.124v-12.691c0-0.311-0.101-0.519-0.409-0.519h-10.532
	c-0.359,0-0.412,0.207-0.412,0.622v12.536c0,1.501,0.616,2.02,1.432,2.176c0.769,0.156,1.535,0.206,1.535,0.776
	c0,0.415-0.155,0.672-0.972,0.672c-0.768,0-0.768-0.207-3.681-0.207c-2.864,0-3.067,0.207-3.937,0.207
	c-0.563,0-0.767-0.259-0.767-0.776c0-0.259,0.204-0.518,0.665-0.622c2.147-0.466,2.351-0.882,2.351-2.33v-25.851
	c0-1.295-0.204-1.657-0.767-1.814c-1.738-0.466-2.2-0.155-2.2-0.828c0-0.311,0.103-0.622,1.023-0.622
	c0.716,0,2.251,0.206,3.58,0.206c1.483,0,2.659-0.206,3.578-0.206c0.82,0,1.026,0.207,1.026,0.622c0,0.725-0.513,0.673-1.535,0.828
	c-0.767,0.104-1.331,0.467-1.331,1.401v11.188c0,0.362,0.105,0.569,0.461,0.569h10.482c0.359,0,0.409-0.155,0.409-0.673v-10.358
	H516.698z"/>
<path fill="#FFFFFF" d="M537.363,457.784c0,0.897,0.509,2.018,1.429,2.018c1.942,0,1.584-2.522,2.354-2.522
	c0.253,0,0.407,0.169,0.407,0.786c0,1.121-1.125,4.54-4.09,4.54c-3.017,0-2.506-3.869-3.273-3.869c-0.815,0-2.656,4.094-7.004,4.094
	c-2.094,0-3.732-1.682-3.732-4.934c0-2.749,1.432-4.373,5.369-7.513c4.553-3.644,5.469-3.925,5.469-5.83v-3.197
	c0-2.971-0.665-3.868-2.146-3.868c-2.762,0-3.989,2.297-4.758,5.381c-0.356,1.402-1.326,2.915-3.066,2.915
	c-0.82,0-1.075-0.335-1.075-1.232c0-1.347,0.615-3.14,2.915-5.439c2.048-2.019,4.758-2.973,7.213-2.973
	c3.068,0,3.987,0.842,3.987,3.87V457.784z M534.292,448.87c0-0.563-0.103-0.728-0.407-0.728c-0.309,0-0.461,0.056-1.28,0.672
	c-3.374,2.523-5.776,5.103-5.776,8.355c0,2.244,1.124,3.309,2.557,3.309c1.174,0,2.249-0.786,3.375-1.907
	c1.124-1.121,1.531-1.961,1.531-3.531V448.87z"/>
<path fill="#FFFFFF" d="M559.551,458.849c0,1.626,0.151,1.851,2.094,2.188c0.665,0.111,0.923,0.223,0.923,0.672
	c0,0.562-0.46,0.672-1.023,0.672c-0.512,0-1.177-0.223-3.578-0.223c-2.457,0-3.017,0.223-3.784,0.223
	c-0.616,0-0.768-0.223-0.768-0.504c0-0.335,0.255-0.728,0.768-0.84c1.994-0.449,2.299-0.562,2.299-3.14v-13.794
	c0-3.7-1.328-5.493-3.731-5.493c-2.713,0-5.318,2.242-5.318,5.047v15.419c0,1.289,0.205,1.738,1.431,1.964
	c1.073,0.278,1.331,0.223,1.331,0.784c0,0.392-0.309,0.561-0.718,0.561c-0.307,0-0.87-0.223-4.295-0.223
	c-1.788,0-2.199,0.223-2.659,0.223c-0.665,0-0.92-0.223-0.92-0.672c0-0.28,0.256-0.617,0.716-0.672
	c1.687-0.225,2.046-0.73,2.046-2.916v-16.037c0-1.57-0.206-1.681-1.535-1.794c-0.818-0.055-1.022-0.111-1.022-0.504
	c0-0.279,0.307-0.504,0.971-0.84c2.71-1.347,3.683-2.805,4.039-2.805c0.206,0,0.358,0.282,0.358,0.673c0,3.085,0,3.252,0.256,3.252
	c0.921,0,3.221-3.587,6.341-3.587c4.346,0,4.449,3.756,5.267,3.756c0.818,0,2.915-3.756,7.005-3.756
	c2.811,0,5.624,2.016,5.624,5.775v16.146c0,1.795,0.357,2.244,1.634,2.637c0.923,0.278,1.28,0.447,1.28,0.727
	c0,0.448-0.205,0.617-0.82,0.617c-0.613,0-1.226-0.223-3.987-0.223c-2.507,0-3.119,0.223-3.681,0.223
	c-0.513,0-0.973-0.055-0.973-0.617c0-0.337,0.461-0.617,0.973-0.727c1.942-0.449,2.505-0.73,2.505-3.14v-14.354
	c0-3.421-1.688-4.934-4.246-4.934c-2.556,0-4.805,1.85-4.805,4.71L559.551,458.849L559.551,458.849z"/>
<path fill="#FFFFFF" d="M577.65,442.14c0-0.84-0.205-1.121-1.175-1.513c-0.869-0.337-1.277-0.392-1.277-0.673
	c0-0.503,0.205-0.561,0.715-0.84c3.63-2.019,3.989-2.973,4.397-2.973c0.205,0,0.358,0.169,0.358,0.786v2.692
	c0,0.168,0.102,0.335,0.308,0.335c0.51,0,2.35-3.14,4.856-3.14c4.294,0,7.618,5.496,7.618,13.232c0,7.401-3.473,12.784-8.386,12.784
	c-2.404,0-3.526-1.121-4.036-1.121c-0.307,0-0.307,0.449-0.307,1.121v7.794c0,1.792,0.611,2.185,2.504,2.522
	c0.613,0.111,0.971,0.169,0.971,0.784c0,0.28-0.358,0.562-1.177,0.562c-0.766,0-1.174-0.225-3.423-0.225
	c-2.045,0-3.222,0.225-3.887,0.225c-0.817,0-1.075-0.225-1.075-0.618c0-0.279,0.052-0.56,0.716-0.727
	c2.045-0.504,2.3-0.561,2.3-2.971V442.14H577.65z M580.72,456.663c0,3.924,1.838,5.158,3.886,5.158
	c3.016,0,5.471-3.476,5.471-11.999c0-6.279-1.535-10.877-4.96-10.877c-2.303,0-4.397,2.018-4.397,4.148v13.57H580.72z"/>
<path fill="#FFFFFF" d="M602.806,436.141c1.635,0,2.915,0.394,3.835,0.897c0.256,0.169,0.307,1.01,0.307,3.141
	c0,1.961,0,2.915-0.512,2.915s-0.512-0.841-1.278-2.973c-0.562-1.513-1.329-2.633-2.914-2.633c-2.2,0-3.835,1.681-3.835,3.868
	c0,5.438,9.868,5.607,9.868,13.456c0,5.045-3.017,8.018-7.618,8.018c-2.147,0-3.17-0.393-4.04-0.672
	c-0.51-0.169-0.716-0.673-0.716-4.542c0-2.86,0.155-3.308,0.567-3.308c0.508,0,0.406,0.561,1.223,3.252
	c0.716,2.298,1.892,3.924,3.784,3.924c2.405,0,3.937-1.85,3.937-4.486c0-7.176-9.561-5.716-9.561-14.128
	C595.852,437.992,599.535,436.141,602.806,436.141z"/>
<path fill="#FFFFFF" d="M614.187,422.462c0.153,0,0.255,0.111,0.255,0.784v16.428c0,0.279,0.102,0.392,0.357,0.392
	c0.462,0,2.916-3.587,6.391-3.587c2.865,0,5.677,1.906,5.829,6.391v15.53c0,1.795,0.461,2.523,1.584,2.637
	c1.024,0.111,1.383,0.278,1.383,0.784c0,0.392-0.358,0.561-0.717,0.561c-0.205,0-1.74-0.223-3.784-0.223
	c-2.607,0-2.965,0.223-3.526,0.223c-0.564,0-0.77-0.169-0.77-0.617c0-0.506,0.359-0.617,0.971-0.727
	c1.383-0.225,1.791-0.618,1.791-2.02v-15.699c0-3.028-1.738-4.71-4.192-4.71c-2.608,0-5.317,2.242-5.317,5.047v15.081
	c0,1.289,0.509,2.02,2.199,2.3c0.972,0.168,1.127,0.334,1.127,0.784c0,0.392-0.309,0.561-0.718,0.561
	c-0.307,0-0.871-0.223-4.297-0.223c-2.352,0-2.758,0.223-3.476,0.223c-0.409,0-0.665-0.223-0.665-0.672
	c0-0.28,0.256-0.617,0.718-0.672c1.686-0.225,2.045-0.73,2.045-2.916v-30.781"/>
<path fill="#FFFFFF" d="M633.336,442.029c0-1.289-0.357-1.682-2.147-2.075c-0.254-0.055-0.461-0.279-0.461-0.561
	c0-0.279,0.358-0.56,1.486-1.008c2.401-0.954,3.423-2.244,3.781-2.244c0.255,0,0.41,0.169,0.41,0.562v21.474
	c0,1.568,0,2.467,1.788,2.86c0.972,0.223,1.278,0.334,1.278,0.784c0,0.392-0.153,0.561-0.764,0.561
	c-0.666,0-1.228-0.223-3.887-0.223c-2.764,0-3.376,0.223-3.835,0.223c-0.359,0-0.613-0.223-0.613-0.617
	c0-0.337,0.204-0.617,0.87-0.727c1.84-0.337,2.094-0.618,2.094-2.581v-16.428H633.336z M634.87,426.835
	c1.023,0,1.893,0.842,1.893,2.804c0,2.019-0.87,2.804-1.893,2.804c-0.972,0-1.891-0.785-1.891-2.804
	C632.98,427.676,633.899,426.835,634.87,426.835z"/>
<path fill="#FFFFFF" d="M643.182,442.813c0-2.019-0.512-2.411-1.994-2.411c-0.358,0-0.513-0.113-0.513-0.449
	c0-1.12,1.688-0.561,3.425-2.578c0.716-0.84,0.921-1.234,1.33-1.234c0.818,0,0.153,4.822,0.665,4.822
	c0.764,0,1.378-4.822,4.857-4.822c1.687,0,2.66,1.403,2.66,3.702c0,1.794-0.565,3.084-1.892,3.084c-1.38,0-1.79-1.01-1.79-2.243
	c0-0.897,0-1.85-0.513-1.85c-2.249,0-3.168,5.495-3.168,6.952v11.663c0,2.578,0.103,3.253,1.84,3.59
	c1.124,0.223,1.688,0.334,1.688,0.727c0,0.506-0.256,0.617-1.177,0.617c-0.41,0-0.869-0.223-3.936-0.223
	c-2.354,0-2.915,0.223-3.273,0.223c-0.665,0-1.022-0.169-0.971-0.672c0.052-0.449,0.41-0.561,1.074-0.672
	c1.432-0.225,1.687-0.449,1.687-3.028v-15.197H643.182z"/>
<path fill="#FFFFFF" d="M658.571,448.477c-0.867,0-1.173,0.449-1.173,1.01c0,6.728,2.453,10.989,6.03,10.989
	c2.2,0,3.632-1.289,4.5-3.197c0.613-1.346,0.613-1.907,0.972-1.907c0.204,0,0.358,0.114,0.358,0.673c0,3.533-2.3,6.785-6.339,6.785
	c-5.624,0-8.897-5.159-8.897-12.784c0-9.42,4.295-13.905,8.691-13.905c3.682,0,6.442,3.252,6.442,8.86c0,3.307,0,3.476-1.226,3.476
	H658.571z M659.748,446.907c3.424,0,5.418-0.393,5.879-0.786c0.461-0.393,0.663-1.009,0.663-2.522c0-3.87-1.634-6.11-3.884-6.11
	c-2.759,0-4.908,3.587-4.908,8.184C657.498,446.682,657.599,446.907,659.748,446.907z"/>
<path fill="#FFFFFF" d="M508.528,492.357c0,9.216-3.735,12.093-8.898,12.093c-4.038,0-8.895-1.864-8.895-8.577v-22.27
	c0-1.385,0.049-1.971-0.358-2.078c-1.943-0.479-2.197-0.213-2.197-1.014c0-0.319,0.508-0.478,0.919-0.478
	c1.431,0,1.637,0.213,3.476,0.213c2.302,0,3.223-0.213,4.039-0.213c0.818,0,1.228,0.054,1.228,0.583
	c0,0.482-0.512,0.587-1.584,0.748c-1.127,0.161-2.151,0.161-2.151,3.251v22.11c0,4.741,3.428,6.446,6.036,6.446
	c3.527,0,6.954-2.451,6.954-9.112v-18.325c0-3.304-0.563-4.051-2.045-4.21c-1.075-0.108-1.433-0.108-1.433-0.799
	c0-0.374,0.308-0.693,0.921-0.693c0.665,0,1.226,0.213,2.965,0.213c2.251,0,2.813-0.213,3.427-0.213
	c0.512,0,0.663,0.213,0.663,0.693c0,0.639-0.561,0.533-1.685,0.799c-1.074,0.267-1.38,0.746-1.38,3.676v17.157H508.528z"/>
<path fill="#FFFFFF" d="M516.306,500.47c0,1.289,0.205,1.738,1.432,1.963c1.634,0.279,1.889,0.223,1.889,0.785
	c0,0.393-0.304,0.561-0.714,0.561c-0.309,0-0.87-0.224-4.295-0.224c-2.352,0-2.763,0.224-3.222,0.224
	c-0.664,0-0.919-0.224-0.919-0.673c0-0.28,0.255-0.617,0.714-0.672c1.689-0.224,2.046-0.728,2.046-2.915V483.48
	c0-1.57-0.205-1.681-1.534-1.794c-0.819-0.056-1.022-0.111-1.022-0.504c0-0.28,0.307-0.504,0.972-0.841
	c2.71-1.344,3.682-2.802,4.038-2.802c0.205,0,0.358,0.279,0.358,0.672c0,3.083,0,3.253,0.258,3.253c0.92,0,3.221-3.59,6.748-3.59
	c2.866,0,5.674,1.907,5.829,6.393v15.529c0,1.852,0.409,2.524,1.432,2.636c1.178,0.113,1.535,0.279,1.535,0.785
	c0,0.393-0.358,0.561-0.716,0.561c-0.206,0-0.923-0.224-3.786-0.224c-2.605,0-2.964,0.224-3.525,0.224
	c-0.563,0-0.769-0.168-0.769-0.617c0-0.337,0.361-0.617,0.973-0.728c1.378-0.224,1.788-0.561,1.788-2.019v-15.698
	c0-3.028-1.736-4.71-4.193-4.71c-2.607,0-5.315,2.243-5.315,5.045L516.306,500.47L516.306,500.47z"/>
<path fill="#FFFFFF" d="M535.201,483.424c0-1.289-0.358-1.682-2.148-2.073c-0.255-0.057-0.461-0.28-0.461-0.562
	c0-0.28,0.361-0.56,1.483-1.009c2.404-0.954,3.425-2.242,3.784-2.242c0.256,0,0.41,0.167,0.41,0.56v21.474
	c0,1.572,0,2.468,1.788,2.86c0.973,0.223,1.28,0.335,1.28,0.785c0,0.393-0.155,0.561-0.768,0.561c-0.665,0-1.227-0.224-3.887-0.224
	c-2.76,0-3.374,0.224-3.834,0.224c-0.358,0-0.612-0.224-0.612-0.617c0-0.337,0.204-0.617,0.869-0.728
	c1.84-0.337,2.097-0.617,2.097-2.577v-16.431H535.201z M536.734,468.231c1.022,0,1.892,0.842,1.892,2.804
	c0,2.02-0.87,2.804-1.892,2.804c-0.972,0-1.891-0.784-1.891-2.804C534.842,469.073,535.762,468.231,536.734,468.231z"/>
<path fill="#FFFFFF" d="M552.92,488.864c1.584-5.271,2.094-7.288,2.094-7.906c0-1.289-0.307-1.402-2.249-1.626
	c-0.308,0-0.666-0.278-0.666-0.672c0-0.562,0.256-0.673,1.023-0.673c0.82,0,1.584,0.225,2.607,0.225c1.074,0,1.79-0.225,2.3-0.225
	c0.768,0,1.075,0.169,1.075,0.506c0,0.335-0.102,0.617-0.871,0.84c-1.228,0.337-1.482,1.682-2.35,4.373
	c-1.688,5.214-4.297,14.523-5.371,18.503c-0.306,1.121-0.255,2.018-0.92,2.018c-0.665,0-0.665-0.896-1.224-2.97
	c-1.637-5.999-3.478-13.121-4.603-17.101c-1.072-3.756-1.175-4.597-2.249-4.821c-0.563-0.113-0.973-0.278-0.973-0.727
	c0-0.506,0.514-0.618,1.024-0.618c0.563,0,1.992,0.225,3.222,0.225c1.021,0,1.84-0.225,2.915-0.225c0.971,0,1.074,0.169,1.074,0.673
	c0,0.337-0.409,0.448-1.177,0.672c-1.174,0.337-1.429,0.618-1.429,1.177c0,0.449,0.152,0.785,1.839,7.625
	c1.942,7.85,2.097,8.412,2.405,8.412C550.823,496.546,550.773,496.04,552.92,488.864z"/>
<path fill="#FFFFFF" d="M561.896,489.872c-0.87,0-1.177,0.448-1.177,1.01c0,6.727,2.455,10.989,6.034,10.989
	c2.197,0,3.628-1.289,4.499-3.197c0.613-1.345,0.613-1.905,0.972-1.905c0.204,0,0.358,0.111,0.358,0.671
	c0,3.532-2.3,6.784-6.342,6.784c-5.623,0-8.895-5.158-8.895-12.783c0-9.42,4.294-13.903,8.691-13.903
	c3.681,0,6.442,3.251,6.442,8.858c0,3.309,0,3.476-1.226,3.476L561.896,489.872L561.896,489.872z M563.071,488.303
	c3.425,0,5.419-0.392,5.879-0.785c0.46-0.391,0.665-1.009,0.665-2.522c0-3.869-1.635-6.112-3.885-6.112
	c-2.76,0-4.909,3.588-4.909,8.187C560.821,488.079,560.924,488.303,563.071,488.303z"/>
<path fill="#FFFFFF" d="M577.746,484.21c0-2.019-0.515-2.411-1.995-2.411c-0.357,0-0.512-0.113-0.512-0.448
	c0-1.121,1.687-0.562,3.425-2.58c0.718-0.841,0.92-1.232,1.329-1.232c0.817,0,0.152,4.82,0.665,4.82c0.768,0,1.38-4.82,4.858-4.82
	c1.687,0,2.659,1.399,2.659,3.7c0,1.795-0.564,3.083-1.891,3.083c-1.38,0-1.79-1.01-1.79-2.243c0-0.896,0-1.849-0.512-1.849
	c-2.25,0-3.171,5.493-3.171,6.953v11.66c0,2.578,0.103,3.252,1.841,3.588c1.125,0.223,1.688,0.335,1.688,0.728
	c0,0.506-0.256,0.617-1.175,0.617c-0.411,0-0.871-0.224-3.937-0.224c-2.353,0-2.915,0.224-3.273,0.224
	c-0.666,0-1.022-0.168-0.972-0.673c0.054-0.449,0.412-0.561,1.076-0.672c1.431-0.224,1.687-0.448,1.687-3.028V484.21H577.746z"/>
<path fill="#FFFFFF" d="M595.794,477.539c1.638,0,2.916,0.391,3.835,0.895c0.255,0.17,0.309,1.01,0.309,3.141
	c0,1.961,0,2.915-0.513,2.915c-0.51,0-0.51-0.841-1.277-2.971c-0.563-1.514-1.329-2.636-2.915-2.636
	c-2.199,0-3.836,1.681-3.836,3.87c0,5.437,9.87,5.605,9.87,13.455c0,5.047-3.018,8.017-7.619,8.017
	c-2.148,0-3.169-0.391-4.039-0.672c-0.51-0.17-0.719-0.673-0.719-4.542c0-2.86,0.156-3.309,0.564-3.309
	c0.51,0,0.407,0.562,1.228,3.253c0.714,2.299,1.891,3.924,3.781,3.924c2.404,0,3.938-1.851,3.938-4.485
	c0-7.176-9.561-5.719-9.561-14.128C588.841,479.388,592.523,477.539,595.794,477.539z"/>
<path fill="#FFFFFF" d="M604.976,483.424c0-1.289-0.358-1.682-2.148-2.073c-0.255-0.057-0.461-0.28-0.461-0.562
	c0-0.28,0.361-0.56,1.483-1.009c2.405-0.954,3.427-2.242,3.784-2.242c0.258,0,0.407,0.167,0.407,0.56v21.474
	c0,1.572,0,2.468,1.791,2.86c0.973,0.223,1.278,0.335,1.278,0.785c0,0.393-0.155,0.561-0.767,0.561
	c-0.666,0-1.227-0.224-3.885-0.224c-2.762,0-3.376,0.224-3.835,0.224c-0.358,0-0.613-0.224-0.613-0.617
	c0-0.337,0.205-0.617,0.869-0.728c1.84-0.337,2.097-0.617,2.097-2.577v-16.431H604.976z M606.511,468.231
	c1.021,0,1.891,0.842,1.891,2.804c0,2.02-0.871,2.804-1.891,2.804c-0.973,0-1.893-0.784-1.893-2.804
	C604.618,469.073,605.537,468.231,606.511,468.231z"/>
<path fill="#FFFFFF" d="M615.922,499.629c0,1.907,0.613,2.243,1.535,2.243c1.942,0,2.298-3.253,3.119-3.253
	c0.307,0,0.46,0.114,0.46,0.449c0,0.449-0.512,2.243-1.177,3.476c-0.716,1.347-1.839,1.681-3.219,1.681
	c-2.3,0-3.784-1.288-3.784-4.821v-18.838c0-0.896-0.869-0.896-1.635-0.896c-0.461,0-0.82,0-0.82-0.672
	c0-0.673,1.586-1.626,4.193-7.064c0.512-1.066,0.512-1.348,0.87-1.348c0.307,0,0.46,0.17,0.46,1.404v4.989
	c0,0.896,0.255,1.233,1.022,1.233h2.045c0.921,0,1.28,0.169,1.28,0.842c0,0.727-0.307,1.065-1.381,1.065h-2.302
	c-0.509,0-0.665,0.169-0.665,1.009v18.501H615.922z"/>
<path fill="#FFFFFF" d="M634.554,487.126c1.432-5.215,1.483-5.832,1.483-6.562c0-0.784-0.513-1.065-1.893-1.233
	c-0.407-0.056-0.969-0.056-0.969-0.561c0-0.561,0.253-0.785,0.768-0.785c0.356,0,1.532,0.225,3.015,0.225
	c0.666,0,1.073-0.225,2.201-0.225c0.46,0,0.665,0.169,0.665,0.673c0,0.448-0.359,0.56-0.818,0.672
	c-1.483,0.337-1.942,4.093-6.19,18.11c-4.701,15.531-3.885,18.224-6.442,18.224c-1.942,0-2.146-0.563-2.146-2.748
	c0-2.298,2.558-1.458,3.477-2.467c0.41-0.449,2.249-6,2.249-7.57c0-2.411-0.41-2.019-3.477-13.287
	c-2.608-9.644-3.12-10.149-3.833-10.261c-0.82-0.113-1.074-0.224-1.074-0.84c0-0.337,0.255-0.506,0.768-0.506
	c1.177,0,2.401,0.225,3.578,0.225c0.972,0,2.455-0.225,2.916-0.225c0.665,0,0.866,0.225,0.866,0.673s-0.561,0.448-1.633,0.672
	c-0.871,0.169-1.076,0.673-1.076,1.29c0,0.954,0.565,2.522,1.893,7.345c2.249,8.073,2.455,8.86,2.76,8.86
	C631.949,496.826,632,496.377,634.554,487.126z"/>
<path fill="#FFFFFF" d="M611.374,447.308v-30.782c0-0.842-0.256-1.178-1.484-1.401c-0.817-0.169-1.073-0.225-1.073-0.617
	c0-0.393,0.155-0.504,0.715-0.728c4.142-1.626,4.142-2.13,4.655-2.13c0.152,0,0.256,0.111,0.256,0.784v16.429 M614.442,432.843
	v15.081"/>
<path fill="#FDB913" d="M622.109,428.668c0,0,1.373-7.215,6.524-8.637c6.983-1.927,17-2.393,21.193-3.392
	c6.196-1.476,11.276-6.11,14.128-9.051c4.485-4.625,8.289-15.827,6.845-19.021c-1.446-3.194,2.944,6.52-15.01,7.619
	c-14.34,0.229-16.702,2.414-18.415,3.11c-7.283,2.769-12.135,15.048-11.169,17.293c0,0,6.012-9.571,16.817-12.903
	c6.461-1.111,17.07-1.699,18.94-4.707c0,0-5.274,3.902-12.777,5.71c-10.1,2.127-12.288,4.389-12.288,4.389
	s-12.122,7.482-15.934,18.935"/>
</svg>
